<svg style="position: absolute; width: 0; height: 0; overflow: hidden;" version="1.1" xmlns="http://www.w3.org/2000/svg" xmlns:xlink="http://www.w3.org/1999/xlink">
    <defs>
        <symbol id="icon-back" viewBox="0 0 24 24">
            <title>Back</title>
            <path d="M9.094 21.716l-8.512-8.512c-0.665-0.665-0.665-1.743 0-2.408l8.512-8.512c0.665-0.665 1.743-0.665 2.408 0s0.665 1.743 0 2.408l-5.606 5.606h16.319c0.94 0 1.702 0.762 1.702 1.702s-0.762 1.702-1.702 1.702h-16.319l5.606 5.606c0.332 0.332 0.499 0.768 0.499 1.204s-0.166 0.871-0.499 1.204c-0.665 0.665-1.743 0.665-2.408 0z"></path>
        </symbol>
        <symbol id="icon-arrow-left" viewBox="0 0 24 24">
            <title>Next</title>
            <path d="M15.668 20.787c0.689 0.697 0.689 1.822 0 2.514-0.689 0.694-1.802 0.699-2.491 0l-9.845-10.045c-0.689-0.694-0.689-1.817 0-2.516l9.845-10.045c0.686-0.694 1.802-0.694 2.491 0 0.689 0.697 0.689 1.822 0 2.514l-8.074 8.793 8.074 8.786z"></path>
        </symbol>
        <symbol id="icon-arrow-right" viewBox="0 0 24 24">
            <title>Previous</title>
            <path d="M16.406 11.999l-8.074-8.791c-0.689-0.694-0.689-1.817 0-2.514 0.689-0.694 1.802-0.694 2.491 0l9.845 10.045c0.689 0.697 0.689 1.822 0 2.516l-9.845 10.045c-0.686 0.699-1.802 0.694-2.491 0-0.689-0.691-0.689-1.817 0-2.514l8.074-8.788z"></path>
        </symbol>
    </defs>
</svg>
